<?xml version="1.0" encoding="utf-8"?>
<!-- Generator: Adobe Illustrator 15.1.0, SVG Export Plug-In . SVG Version: 6.00 Build 0)  -->
<!DOCTYPE svg PUBLIC "-//W3C//DTD SVG 1.1//EN" "http://www.w3.org/Graphics/SVG/1.1/DTD/svg11.dtd">
<svg version="1.1" id="Layer_1" xmlns="http://www.w3.org/2000/svg" xmlns:xlink="http://www.w3.org/1999/xlink" x="0px" y="0px"
	 width="380.98px" height="383.981px" viewBox="0 0 380.98 383.981" enable-background="new 0 0 380.98 383.981"
	 xml:space="preserve">
<path id="rect3381-0" opacity="0.6" fill="#444444" d="M284.095,88.854c-1.586,0-2.859,1.277-2.859,2.861v7.271
	c-3.702,0.92-7.263,2.398-10.61,4.412l-5.124-5.126c-1.122-1.122-2.934-1.122-4.055,0l-9.299,9.298
	c-1.119,1.122-1.119,2.933,0,4.053l5.127,5.127c-1.999,3.336-3.384,6.939-4.294,10.608h-7.269c-1.587,0-2.863,1.277-2.863,2.861
	v13.114c0,1.587,1.276,2.86,2.863,2.86h7.15c0.918,3.704,2.396,7.263,4.412,10.61l-5.127,5.124c-1.119,1.122-1.119,2.934,0,4.056
	l9.299,9.297c1.121,1.119,2.933,1.119,4.055,0l5.124-5.126c3.359,2.027,6.908,3.374,10.61,4.294v7.269
	c0,1.587,1.273,2.862,2.859,2.862h13.114c1.583,0,2.862-1.275,2.862-2.862v-7.269c3.707-0.917,7.251-2.278,10.608-4.294l5.126,5.126
	c1.122,1.119,2.934,1.119,4.055,0l9.296-9.297c1.122-1.122,1.122-2.934,0-4.056l-5.124-5.124c2.016-3.342,3.489-6.929,4.412-10.61
	h7.268c1.586,0,2.863-1.273,2.863-2.86v-13.114c0-1.584-1.277-2.861-2.863-2.861h-7.268c-0.915-3.678-2.42-7.279-4.412-10.608
	l5.124-5.127c1.122-1.12,1.122-2.931,0-4.053l-9.296-9.298c-1.121-1.122-2.933-1.122-4.055,0l-5.126,5.126
	c-3.352-2.011-6.925-3.499-10.608-4.412v-7.271c0-1.584-1.279-2.861-2.862-2.861H284.095z M290.175,118.657
	c4.636-0.124,9.365,1.442,12.993,4.888c7.263,6.886,7.603,18.366,0.716,25.628c-6.868,7.246-18.361,7.561-25.628,0.717
	c-7.263-6.886-7.603-18.369-0.717-25.631C280.983,120.63,285.541,118.78,290.175,118.657z"/>
<path id="path4443" fill="#444444" d="M104.313,91.27c0,0-0.29,0.721-0.691,1.582c-0.377,0.808-1.088,1.64-1.088,1.681
	c-0.234,0.019-1.186,0.337-2.471,0.396c-1.714,0.079-3.96,0.014-6.327-0.099c-4.732-0.226-9.777-0.677-13.147-0.099h-0.099
	c-2.039,0.38-3.484,1.734-4.547,3.163c-1.078,1.449-1.859,3.092-2.373,4.646c-0.785,2.377-1.072,4.205-1.186,5.141H58.741v58.126
	h101.227V107.68H77.227c0.155-0.944,0.398-2.175,0.89-3.657c0.414-1.251,0.967-2.537,1.582-3.361
	c0.615-0.825,1.208-1.186,1.779-1.285c1.937-0.332,7.139-0.032,11.961,0.198c2.41,0.114,4.801,0.191,6.821,0.099
	c2.021-0.092,3.643,0.014,5.339-1.384c1.325-1.092,1.767-2.274,2.273-3.361c0.507-1.088,0.89-2.076,0.89-2.076L104.313,91.27z
	 M68.33,120.926h7.81c0.488,0,0.89,0.303,0.89,0.791v7.909c0,0.488-0.402,0.89-0.89,0.89h-7.81c-0.488,0-0.89-0.401-0.89-0.89
	v-7.909C67.44,121.229,67.842,120.926,68.33,120.926z M82.664,120.926h7.81c0.488,0,0.89,0.303,0.89,0.791v7.909
	c0,0.488-0.401,0.89-0.89,0.89h-7.81c-0.488,0-0.89-0.401-0.89-0.89v-7.909C81.774,121.229,82.176,120.926,82.664,120.926z
	 M96.998,120.926h7.81c0.488,0,0.889,0.303,0.889,0.791v7.909c0,0.488-0.401,0.89-0.889,0.89h-7.81c-0.488,0-0.89-0.401-0.89-0.89
	v-7.909C96.108,121.229,96.51,120.926,96.998,120.926z M111.332,120.926h7.81c0.488,0,0.89,0.303,0.89,0.791v7.909
	c0,0.488-0.402,0.89-0.89,0.89h-7.81c-0.488,0-0.89-0.401-0.89-0.89v-7.909C110.442,121.229,110.844,120.926,111.332,120.926z
	 M125.666,120.926h7.81c0.489,0,0.89,0.303,0.89,0.791v7.909c0,0.488-0.401,0.89-0.89,0.89h-7.81c-0.488,0-0.889-0.401-0.889-0.89
	v-7.909C124.776,121.229,125.178,120.926,125.666,120.926z M140,120.926h7.809c0.488,0,0.89,0.303,0.89,0.791v7.909
	c0,0.488-0.401,0.89-0.89,0.89H140c-0.488,0-0.89-0.401-0.89-0.89v-7.909C139.11,121.229,139.512,120.926,140,120.926z
	 M75.052,136.15h7.81c0.488,0,0.89,0.401,0.89,0.89v7.81c0,0.488-0.402,0.89-0.89,0.89h-7.81c-0.488,0-0.89-0.402-0.89-0.89v-7.81
	C74.163,136.551,74.564,136.15,75.052,136.15z M89.781,136.15h7.81c0.488,0,0.889,0.401,0.889,0.89v7.81
	c0,0.488-0.401,0.89-0.889,0.89h-7.81c-0.488,0-0.89-0.402-0.89-0.89v-7.81C88.892,136.551,89.293,136.15,89.781,136.15z
	 M104.511,136.15h7.908c0.488,0,0.891,0.401,0.891,0.89v7.81c0,0.488-0.402,0.89-0.891,0.89h-7.908c-0.488,0-0.889-0.402-0.889-0.89
	v-7.81C103.622,136.551,104.023,136.15,104.511,136.15z M119.339,136.15h7.81c0.488,0,0.889,0.401,0.889,0.89v7.81
	c0,0.488-0.401,0.89-0.889,0.89h-7.81c-0.489,0-0.89-0.402-0.89-0.89v-7.81C118.449,136.551,118.851,136.15,119.339,136.15z
	 M134.068,136.15h7.809c0.489,0,0.89,0.401,0.89,0.89v7.81c0,0.488-0.401,0.89-0.89,0.89h-7.809c-0.488,0-0.889-0.402-0.889-0.89
	v-7.81C133.179,136.551,133.581,136.15,134.068,136.15z M79.006,154.142h60.697c0.488,0,0.791,0.401,0.791,0.89v4.053
	c0,0.488-0.303,0.89-0.791,0.89H79.006c-0.488,0-0.791-0.401-0.791-0.89v-4.053C78.216,154.543,78.519,154.142,79.006,154.142z"/>
<rect x="39.813" y="63.8" fill="none" stroke="#444444" stroke-miterlimit="10" width="139.083" height="139.083"/>
<rect x="221.17" y="67.175" opacity="0.6" fill="none" stroke="#444444" stroke-miterlimit="10" width="139.083" height="139.083"/>
<path fill="#FFFFFF" stroke="#020202" stroke-width="4.0656" d="M391.744,680.415c0,0-14.546-39.939-43.597-47.238
	c-29.083-7.283-159.883-61.733-192.566-116.254c-32.692-54.509-61.745-108.975-76.292-127.157c-14.5-18.136,0-29.059,25.474-25.415
	c25.403,3.624,83.501,72.66,83.501,72.66s3.679-43.589-14.5-79.961c-18.182-36.283-76.281-181.62-69.001-196.156
	c7.224-14.536,25.403-29.059,36.271-14.536c10.938,14.536,98.107,170.751,98.107,170.751s-29.074-94.449-7.248-98.094
	c21.794-3.611,83.537,65.412,83.537,65.412s-29.048-25.438-3.644-29.072c25.438-3.622,50.908,21.793,76.312,36.318
	c25.438,14.558,98.106,58.155,105.361,90.826c7.257,32.718-10.867,47.253,39.975,83.571c50.842,36.33,54.454,50.854,54.454,50.854"
	/>
<text transform="matrix(1 0 0 1 69.8135 43.498)" fill="#414042" font-family="'OpenSans'" font-size="24">7-9mm</text>
<text transform="matrix(1 0 0 1 171.6719 43.498)" fill="#414042" font-family="'OpenSans'" font-size="24">2mm</text>
<g>
	<g>
		<line fill="none" stroke="#414042" stroke-miterlimit="10" x1="45.783" y1="54.858" x2="172.927" y2="54.858"/>
		<g>
			<polygon fill="#414042" points="48.592,58.562 47.019,54.858 48.592,51.155 39.813,54.858 			"/>
		</g>
		<g>
			<polygon fill="#414042" points="170.118,58.562 171.691,54.858 170.118,51.155 178.896,54.858 			"/>
		</g>
	</g>
</g>
<g>
	<g>
		<line fill="none" stroke="#414042" stroke-miterlimit="10" x1="184.866" y1="54.858" x2="215.2" y2="54.858"/>
		<g>
			<polygon fill="#414042" points="187.675,58.562 186.102,54.858 187.675,51.155 178.896,54.858 			"/>
		</g>
		<g>
			<polygon fill="#414042" points="212.392,58.562 213.965,54.858 212.392,51.155 221.17,54.858 			"/>
		</g>
	</g>
</g>
</svg>
